<?xml version="1.0" encoding="UTF-8"?><svg id="Lag_1" xmlns="http://www.w3.org/2000/svg" viewBox="0 0 281.98 281.96"><path d="M29.52,.52l29.1,29.1H206.23c-.75-.74-.91-1.72-.12-2.51L232.73,.49c.67-.67,1.7-.63,2.36,.03l46.41,46.41c.67,.67,.63,1.7-.03,2.36l-26.63,26.63c-.78,.78-1.77,.56-2.47-.15V224.58l18.1,18.1c.67,.67,.63,1.7-.03,2.36l-26.63,26.63c-.64,.64-1.68,.64-2.33,0l-19.31-19.32H75.79c.78,.78,.89,1.73,.07,2.56l-26.58,26.58c-.67,.67-1.7,.63-2.36-.03L.51,235.03c-.98-.98-.39-1.94,.36-2.69l26.29-26.29c.78-.78,1.77-.56,2.48,.15V58.6L.51,29.47c-.85-.85-.5-1.83,.23-2.56L27.17,.48c.67-.67,1.7-.63,2.36,.03h0Zm111.49,66.68c18.14,0,32.92,14.78,32.92,32.92s-14.69,32.92-32.92,32.92-32.92-14.7-32.92-32.92,14.87-32.92,32.92-32.92h0Zm0,17.16c-8.74,0-15.76,7.02-15.76,15.76s7.05,15.76,15.76,15.76,15.76-7.03,15.76-15.76-7.01-15.76-15.76-15.76Zm-39.45,113.26h78.89v-14.98c0-8.03-2.43-15.8-7-22.37H108.56c-4.58,6.59-7,14.34-7,22.37v14.98Zm87.47,17.16H92.98c-4.74,0-8.58-3.84-8.58-8.58v-23.56c0-13.18,4.62-25.85,13.04-36.01,1.62-2.21,4.17-3.51,6.92-3.51h73.3c2.45,0,4.82,1.03,6.54,3.05,8.65,10.2,13.43,23.09,13.43,36.48v23.56c0,4.74-3.85,8.58-8.58,8.58h0ZM75.79,46.78c.74,.74,.9,1.72,.12,2.51l-26.63,26.63c-.78,.78-1.77,.56-2.47-.15V223.36l11.82,11.83H205.01l-9.97-9.97c-.67-.67-.63-1.7,.03-2.36l26.62-26.63c.64-.64,1.69-.64,2.33,0l11.19,11.19V58.61l-11.82-11.83H75.79Z"/></svg>