<?xml version="1.0" encoding="UTF-8"?><svg xmlns="http://www.w3.org/2000/svg" viewBox="0 0 563.59 139.85"><defs><style>.cls-1{fill:#142233;}.cls-2{fill:#9294a2;}.cls-3{fill:#ee7701;}</style></defs><g id="Navn"><g><path class="cls-1" d="M124.86,110.23c-2.63,0-5.01-.53-7.15-1.59-2.14-1.06-3.98-2.46-5.51-4.21-1.53-1.75-2.72-3.75-3.56-6.01-.84-2.25-1.26-4.56-1.26-6.92s.45-4.82,1.34-7.07c.89-2.25,2.12-4.25,3.69-5.98,1.57-1.73,3.43-3.11,5.58-4.13,2.16-1.02,4.5-1.53,7.02-1.53s4.96,.55,7.1,1.64,3.97,2.52,5.48,4.29c1.52,1.77,2.69,3.78,3.54,6.03,.84,2.25,1.26,4.54,1.26,6.86,0,2.46-.44,4.81-1.31,7.05-.88,2.24-2.09,4.21-3.64,5.93-1.55,1.72-3.4,3.09-5.56,4.11-2.16,1.02-4.5,1.53-7.02,1.53Zm-10.41-18.72c0,1.59,.24,3.14,.71,4.63,.47,1.49,1.15,2.81,2.05,3.95,.89,1.14,1.99,2.06,3.28,2.76,1.3,.69,2.77,1.04,4.42,1.04s3.17-.35,4.47-1.07c1.3-.71,2.39-1.66,3.28-2.83,.89-1.18,1.57-2.5,2.02-3.98,.45-1.47,.68-2.97,.68-4.5s-.24-3.14-.73-4.63c-.49-1.49-1.18-2.81-2.07-3.95-.89-1.14-1.99-2.05-3.28-2.73-1.3-.68-2.75-1.01-4.37-1.01s-3.18,.36-4.5,1.07c-1.31,.71-2.41,1.65-3.28,2.81-.88,1.16-1.54,2.48-2,3.95-.45,1.47-.68,2.97-.68,4.5Z"/><path class="cls-1" d="M162.96,110.49c-2.09,0-3.91-.48-5.46-1.43-1.55-.95-2.76-2.24-3.64-3.87v15.86h-6.77v-38.32h5.91v4.68c.98-1.59,2.24-2.85,3.79-3.77,1.55-.92,3.33-1.38,5.36-1.38,1.79,0,3.44,.37,4.95,1.12,1.52,.75,2.82,1.75,3.92,3.02,1.09,1.27,1.95,2.76,2.58,4.47,.62,1.72,.93,3.53,.93,5.43s-.29,3.83-.86,5.56c-.57,1.73-1.37,3.24-2.4,4.52-1.03,1.28-2.25,2.29-3.66,3.02-1.41,.73-2.96,1.09-4.65,1.09Zm-2.27-5.93c1.01,0,1.95-.23,2.8-.68,.86-.45,1.59-1.06,2.2-1.82,.61-.76,1.08-1.65,1.41-2.65,.34-1,.51-2.04,.51-3.12,0-1.14-.19-2.21-.56-3.2-.37-.99-.88-1.85-1.54-2.57-.66-.73-1.43-1.3-2.32-1.72s-1.86-.62-2.91-.62c-.64,0-1.3,.11-1.97,.34-.67,.23-1.3,.55-1.87,.96-.57,.42-1.09,.9-1.54,1.46-.45,.56-.8,1.16-1.04,1.82v6.4c.61,1.56,1.53,2.85,2.78,3.87,1.25,1.02,2.59,1.53,4.04,1.53Z"/><path class="cls-1" d="M191.41,110.49c-2.12,0-4.04-.37-5.76-1.12-1.72-.75-3.18-1.76-4.4-3.04-1.21-1.28-2.15-2.77-2.8-4.47-.66-1.7-.98-3.48-.98-5.36s.32-3.77,.96-5.49c.64-1.72,1.57-3.22,2.78-4.52,1.21-1.3,2.69-2.33,4.42-3.09,1.73-.76,3.68-1.14,5.84-1.14s4.08,.38,5.79,1.14c1.7,.76,3.15,1.79,4.35,3.07,1.2,1.28,2.1,2.77,2.73,4.47,.62,1.7,.94,3.47,.94,5.3,0,.45,0,.88-.03,1.3-.02,.42-.06,.76-.13,1.04h-20.46c.1,1.08,.35,2.03,.76,2.86s.93,1.54,1.57,2.13c.64,.59,1.36,1.04,2.17,1.35s1.65,.47,2.53,.47c1.35,0,2.62-.34,3.81-1.01,1.2-.68,2.01-1.57,2.45-2.68l5.81,1.66c-.98,2.08-2.54,3.79-4.67,5.12-2.14,1.33-4.69,2-7.65,2Zm6.87-16.43c-.17-2.04-.9-3.68-2.2-4.91-1.3-1.23-2.87-1.85-4.72-1.85-.91,0-1.76,.17-2.55,.49-.79,.33-1.49,.79-2.1,1.38-.61,.59-1.1,1.3-1.49,2.13-.39,.83-.62,1.75-.68,2.76h13.74Z"/><path class="cls-1" d="M234,109.97h-6.77v-15.29c0-2.18-.37-3.78-1.11-4.78-.74-1.01-1.77-1.51-3.08-1.51-.67,0-1.36,.14-2.07,.42-.71,.28-1.37,.67-2,1.17-.62,.5-1.19,1.1-1.69,1.79-.51,.69-.88,1.46-1.11,2.29v15.91h-6.77v-27.25h6.11v5.04c.98-1.73,2.39-3.08,4.24-4.06,1.85-.97,3.94-1.46,6.27-1.46,1.65,0,3,.31,4.04,.94,1.04,.62,1.85,1.44,2.43,2.44,.57,1.01,.97,2.15,1.19,3.43,.22,1.28,.33,2.58,.33,3.9v17Z"/><path class="cls-1" d="M261.34,73.05h6.16l13.64,36.92h-7.18l-3.33-9.2h-12.53l-3.28,9.2h-7.18l13.69-36.92Zm8.03,22.67l-4.95-14.51-5.15,14.51h10.11Z"/><path class="cls-1" d="M282.06,96.35c0-1.91,.32-3.71,.96-5.41,.64-1.7,1.57-3.19,2.78-4.47,1.21-1.28,2.68-2.31,4.4-3.07,1.72-.76,3.65-1.14,5.81-1.14,2.9,0,5.36,.64,7.4,1.92,2.04,1.28,3.56,2.96,4.57,5.04l-6.62,2.08c-.57-1-1.33-1.78-2.27-2.31-.94-.54-1.99-.81-3.13-.81-.98,0-1.89,.2-2.73,.6-.84,.4-1.58,.95-2.2,1.66-.62,.71-1.11,1.57-1.47,2.57-.35,1.01-.53,2.12-.53,3.33s.18,2.32,.56,3.33c.37,1.01,.87,1.87,1.49,2.6,.62,.73,1.36,1.29,2.2,1.69,.84,.4,1.73,.6,2.68,.6,1.21,0,2.33-.31,3.36-.94,1.03-.62,1.74-1.39,2.15-2.29l6.62,2.08c-.91,2.08-2.41,3.78-4.5,5.1-2.09,1.32-4.6,1.98-7.53,1.98-2.16,0-4.09-.38-5.81-1.14s-3.18-1.79-4.4-3.09c-1.21-1.3-2.15-2.81-2.8-4.52-.66-1.72-.99-3.51-.99-5.38Z"/><path class="cls-1" d="M310.3,96.35c0-1.91,.32-3.71,.96-5.41,.64-1.7,1.57-3.19,2.78-4.47,1.21-1.28,2.68-2.31,4.4-3.07,1.72-.76,3.65-1.14,5.81-1.14,2.9,0,5.36,.64,7.4,1.92,2.04,1.28,3.56,2.96,4.57,5.04l-6.62,2.08c-.57-1-1.33-1.78-2.27-2.31-.94-.54-1.99-.81-3.13-.81-.98,0-1.89,.2-2.73,.6-.84,.4-1.58,.95-2.2,1.66-.62,.71-1.11,1.57-1.47,2.57-.35,1.01-.53,2.12-.53,3.33s.18,2.32,.56,3.33c.37,1.01,.87,1.87,1.49,2.6,.62,.73,1.36,1.29,2.2,1.69,.84,.4,1.73,.6,2.68,.6,1.21,0,2.33-.31,3.36-.94,1.03-.62,1.74-1.39,2.15-2.29l6.62,2.08c-.91,2.08-2.41,3.78-4.5,5.1-2.09,1.32-4.6,1.98-7.53,1.98-2.16,0-4.09-.38-5.81-1.14s-3.18-1.79-4.4-3.09c-1.21-1.3-2.15-2.81-2.8-4.52-.66-1.72-.99-3.51-.99-5.38Z"/><path class="cls-1" d="M352.49,110.49c-2.12,0-4.04-.37-5.76-1.12s-3.18-1.76-4.4-3.04c-1.21-1.28-2.15-2.77-2.8-4.47-.66-1.7-.99-3.48-.99-5.36s.32-3.77,.96-5.49c.64-1.72,1.57-3.22,2.78-4.52,1.21-1.3,2.69-2.33,4.42-3.09,1.73-.76,3.68-1.14,5.84-1.14s4.08,.38,5.79,1.14c1.7,.76,3.15,1.79,4.35,3.07,1.2,1.28,2.1,2.77,2.73,4.47,.62,1.7,.93,3.47,.93,5.3,0,.45,0,.88-.03,1.3s-.06,.76-.13,1.04h-20.46c.1,1.08,.35,2.03,.76,2.86s.93,1.54,1.57,2.13c.64,.59,1.36,1.04,2.17,1.35s1.65,.47,2.53,.47c1.35,0,2.62-.34,3.81-1.01,1.2-.68,2.01-1.57,2.45-2.68l5.81,1.66c-.98,2.08-2.54,3.79-4.67,5.12-2.14,1.33-4.69,2-7.66,2Zm6.87-16.43c-.17-2.04-.9-3.68-2.2-4.91-1.3-1.23-2.87-1.85-4.72-1.85-.91,0-1.76,.17-2.55,.49-.79,.33-1.49,.79-2.1,1.38-.61,.59-1.1,1.3-1.49,2.13-.39,.83-.62,1.75-.68,2.76h13.74Z"/><path class="cls-1" d="M380.49,110.49c-2.22,0-4.4-.36-6.52-1.09-2.12-.73-3.94-1.77-5.46-3.12l2.53-4.37c1.62,1.18,3.19,2.07,4.72,2.68,1.53,.61,3.06,.91,4.57,.91,1.35,0,2.41-.26,3.18-.78s1.16-1.27,1.16-2.24-.45-1.68-1.36-2.13c-.91-.45-2.39-.97-4.45-1.56-1.72-.48-3.18-.95-4.4-1.4-1.21-.45-2.19-.96-2.93-1.53-.74-.57-1.28-1.23-1.62-1.98-.34-.74-.5-1.64-.5-2.68,0-1.39,.26-2.63,.78-3.74,.52-1.11,1.25-2.05,2.2-2.83,.94-.78,2.05-1.38,3.31-1.79,1.26-.42,2.64-.62,4.12-.62,1.99,0,3.85,.29,5.58,.88,1.73,.59,3.33,1.54,4.77,2.86l-2.73,4.21c-1.35-1.04-2.65-1.8-3.92-2.29-1.26-.48-2.52-.73-3.76-.73-1.15,0-2.11,.24-2.88,.73-.78,.49-1.16,1.27-1.16,2.34,0,.49,.09,.88,.28,1.2,.18,.31,.48,.59,.88,.83,.4,.24,.94,.48,1.59,.7,.66,.23,1.47,.46,2.45,.7,1.82,.49,3.38,.97,4.67,1.46,1.3,.49,2.36,1.04,3.18,1.66s1.43,1.34,1.82,2.16c.39,.81,.58,1.79,.58,2.94,0,2.67-.96,4.78-2.88,6.32-1.92,1.54-4.53,2.31-7.83,2.31Z"/><path class="cls-1" d="M405.6,110.49c-2.22,0-4.4-.36-6.52-1.09-2.12-.73-3.94-1.77-5.46-3.12l2.53-4.37c1.62,1.18,3.19,2.07,4.72,2.68,1.53,.61,3.06,.91,4.57,.91,1.35,0,2.41-.26,3.18-.78s1.16-1.27,1.16-2.24-.45-1.68-1.36-2.13c-.91-.45-2.39-.97-4.45-1.56-1.72-.48-3.18-.95-4.4-1.4-1.21-.45-2.19-.96-2.93-1.53-.74-.57-1.28-1.23-1.62-1.98-.34-.74-.5-1.64-.5-2.68,0-1.39,.26-2.63,.78-3.74,.52-1.11,1.25-2.05,2.2-2.83,.94-.78,2.05-1.38,3.31-1.79,1.26-.42,2.64-.62,4.12-.62,1.99,0,3.85,.29,5.58,.88,1.73,.59,3.33,1.54,4.77,2.86l-2.73,4.21c-1.35-1.04-2.65-1.8-3.92-2.29-1.26-.48-2.52-.73-3.76-.73-1.15,0-2.11,.24-2.88,.73-.78,.49-1.16,1.27-1.16,2.34,0,.49,.09,.88,.28,1.2,.18,.31,.48,.59,.88,.83,.4,.24,.94,.48,1.59,.7,.66,.23,1.47,.46,2.45,.7,1.82,.49,3.38,.97,4.67,1.46,1.3,.49,2.36,1.04,3.18,1.66s1.43,1.34,1.82,2.16c.39,.81,.58,1.79,.58,2.94,0,2.67-.96,4.78-2.88,6.32-1.92,1.54-4.53,2.31-7.83,2.31Z"/></g><g id="ENG"><g><path class="cls-2" d="M108.32,57.01v-22.72h8.6c1.96,0,3.67,.3,5.14,.9,1.47,.6,2.7,1.41,3.69,2.43,.99,1.02,1.74,2.22,2.24,3.6,.5,1.38,.75,2.84,.75,4.4,0,1.73-.28,3.29-.84,4.69-.56,1.4-1.35,2.59-2.37,3.58-1.02,.99-2.26,1.76-3.72,2.3s-3.08,.82-4.88,.82h-8.6Zm16.52-11.39c0-1.19-.18-2.29-.53-3.3-.35-1-.87-1.86-1.55-2.58-.68-.71-1.51-1.27-2.49-1.68s-2.09-.61-3.35-.61h-4.78v16.38h4.78c1.27,0,2.41-.21,3.4-.62,.99-.42,1.82-.99,2.49-1.73,.67-.74,1.18-1.6,1.52-2.61,.34-1,.51-2.09,.51-3.26Z"/><path class="cls-2" d="M137.03,57.33c-.86,0-1.67-.13-2.41-.4s-1.38-.63-1.91-1.1c-.53-.47-.96-1.02-1.26-1.66-.31-.64-.46-1.33-.46-2.08,0-.79,.18-1.5,.55-2.14,.36-.64,.88-1.19,1.55-1.66s1.47-.83,2.39-1.09c.92-.26,1.94-.38,3.06-.38,.84,0,1.67,.07,2.49,.21,.82,.14,1.56,.33,2.22,.56v-1.15c0-1.24-.38-2.2-1.13-2.9s-1.83-1.04-3.24-1.04c-.96,0-1.89,.17-2.82,.5-.92,.33-1.87,.81-2.85,1.42l-1.16-2.24c2.3-1.45,4.69-2.18,7.17-2.18s4.37,.59,5.74,1.76c1.37,1.17,2.05,2.86,2.05,5.06v6.05c0,.75,.33,1.13,.99,1.15v3.01c-.36,.06-.68,.11-.94,.13-.26,.02-.52,.03-.77,.03-.73,0-1.29-.17-1.69-.51-.4-.34-.64-.78-.73-1.31l-.1-1.06c-.8,.98-1.78,1.73-2.95,2.26-1.17,.52-2.43,.78-3.77,.78Zm1.02-2.59c.91,0,1.77-.15,2.58-.46,.81-.31,1.44-.74,1.9-1.3,.48-.38,.72-.79,.72-1.22v-2.21c-.64-.23-1.31-.42-2.03-.54s-1.42-.19-2.1-.19c-1.34,0-2.44,.27-3.29,.82-.85,.54-1.28,1.26-1.28,2.16,0,.83,.33,1.53,.99,2.1,.66,.57,1.5,.85,2.53,.85Z"/><path class="cls-2" d="M167.55,57.01h-3.75v-9.38c0-1.58-.27-2.73-.8-3.44-.54-.71-1.33-1.07-2.37-1.07-.55,0-1.09,.1-1.64,.29-.55,.19-1.06,.46-1.54,.82-.48,.35-.9,.77-1.28,1.25s-.67,1.01-.87,1.58v9.95h-3.76v-16.74h3.41v3.36c.68-1.13,1.67-2.02,2.97-2.67,1.3-.65,2.73-.98,4.3-.98,1.07,0,1.95,.18,2.63,.54,.68,.36,1.22,.86,1.62,1.49,.4,.63,.68,1.35,.84,2.18,.16,.82,.24,1.69,.24,2.61v10.21Z"/><path class="cls-2" d="M171.92,37.52v-3.87h3.76v3.87h-3.76Zm0,19.49v-16.74h3.76v16.74h-3.76Z"/><path class="cls-2" d="M186.67,57.33c-1.43,0-2.86-.22-4.28-.66-1.42-.44-2.65-1.06-3.67-1.87l1.5-2.24c1.07,.73,2.13,1.28,3.17,1.65,1.05,.37,2.12,.56,3.21,.56s2-.2,2.65-.61c.65-.4,.97-.98,.97-1.73,0-.7-.36-1.22-1.09-1.54-.73-.32-1.87-.67-3.41-1.06-1.12-.28-2.07-.54-2.87-.8-.8-.26-1.45-.55-1.95-.9-.5-.34-.87-.74-1.09-1.18-.23-.45-.34-.99-.34-1.63,0-.85,.18-1.61,.53-2.27,.35-.66,.84-1.22,1.47-1.68,.63-.46,1.36-.81,2.2-1.04,.84-.23,1.75-.35,2.73-.35,1.34,0,2.59,.19,3.75,.58,1.16,.38,2.2,.94,3.11,1.66l-1.6,2.11c-1.66-1.24-3.43-1.86-5.29-1.86-.96,0-1.76,.19-2.41,.56s-.97,.97-.97,1.78c0,.34,.07,.63,.21,.86,.14,.24,.36,.44,.67,.61,.31,.17,.71,.33,1.19,.46,.49,.14,1.1,.29,1.83,.46,1.21,.28,2.25,.56,3.12,.83,.88,.28,1.6,.6,2.17,.98,.57,.37,.99,.81,1.26,1.31,.27,.5,.41,1.1,.41,1.81,0,1.6-.64,2.86-1.93,3.79-1.29,.93-3.03,1.39-5.24,1.39Z"/><path class="cls-2" d="M213.13,57.01h-3.75v-9.38c0-1.54-.29-2.67-.87-3.41-.58-.74-1.42-1.1-2.51-1.1-.52,0-1.05,.1-1.57,.29-.52,.19-1.02,.46-1.48,.82-.47,.35-.88,.77-1.25,1.25-.36,.48-.64,1.01-.82,1.58v9.95h-3.76v-23.36h3.76v9.98c.68-1.15,1.61-2.05,2.78-2.69,1.17-.64,2.45-.96,3.84-.96,1.11,0,2.03,.19,2.75,.56,.72,.37,1.29,.87,1.72,1.49,.43,.62,.73,1.34,.9,2.16,.17,.82,.26,1.69,.26,2.61v10.21Z"/><path class="cls-2" d="M230.23,41.01v16h-3.82v-22.72h3l13.86,16.38v-16.35h3.86v22.69h-3.17l-13.72-16Z"/><path class="cls-2" d="M259.96,57.33c-1.39,0-2.65-.23-3.79-.69-1.14-.46-2.11-1.08-2.92-1.87-.81-.79-1.43-1.71-1.88-2.75-.44-1.04-.67-2.15-.67-3.33s.22-2.29,.67-3.34c.44-1.06,1.07-1.98,1.88-2.78,.81-.8,1.78-1.43,2.92-1.89,1.14-.46,2.41-.69,3.82-.69s2.65,.23,3.77,.7c1.13,.47,2.09,1.09,2.88,1.87,.8,.78,1.41,1.69,1.83,2.72,.42,1.04,.63,2.12,.63,3.25,0,.26-.01,.5-.03,.72-.02,.22-.05,.41-.07,.56h-14.3c.07,.75,.26,1.42,.56,2.02,.31,.6,.71,1.12,1.19,1.55,.49,.44,1.05,.77,1.67,1.01,.63,.23,1.28,.35,1.96,.35,.5,0,1-.06,1.48-.18,.49-.12,.94-.29,1.35-.51s.77-.5,1.09-.82c.32-.32,.57-.67,.75-1.06l3.21,.86c-.61,1.26-1.63,2.29-3.06,3.09-1.42,.8-3.08,1.2-4.97,1.2Zm5.43-9.95c-.07-.7-.26-1.35-.56-1.95-.31-.6-.7-1.1-1.18-1.52s-1.04-.74-1.67-.98c-.64-.23-1.31-.35-2.01-.35s-1.37,.12-2,.35c-.63,.23-1.18,.56-1.66,.98s-.87,.92-1.16,1.52c-.3,.6-.48,1.25-.55,1.95h10.79Z"/><path class="cls-2" d="M281.98,56.15c-.48,.21-1.14,.45-1.98,.72s-1.74,.4-2.7,.4c-.59,0-1.15-.07-1.67-.22-.53-.15-.99-.37-1.38-.67-.4-.3-.71-.69-.94-1.17s-.34-1.06-.34-1.74v-10.46h-2.36v-2.72h2.36v-5.5h3.76v5.5h3.89v2.72h-3.89v9.34c.04,.6,.24,1.03,.6,1.3,.35,.27,.79,.4,1.31,.4s1.02-.08,1.5-.26c.48-.17,.83-.31,1.06-.42l.79,2.78Z"/><path class="cls-2" d="M306.83,40.27h3.58l-7.51,16.74h-3.11l-3.31-7.78-3.31,7.78h-3.11l-7.54-16.74h3.58l5.77,13.34,2.59-6.21-3.11-7.1h3.07l2.05,5.25,2.01-5.25h3.07l-3.07,7.1,2.59,6.21,5.74-13.34Z"/><path class="cls-2" d="M320.28,57.33c-1.41,0-2.68-.23-3.81-.7-1.13-.47-2.09-1.1-2.88-1.89-.8-.79-1.41-1.71-1.84-2.77-.43-1.06-.65-2.16-.65-3.31s.22-2.26,.65-3.31c.43-1.06,1.05-1.98,1.86-2.77,.81-.79,1.78-1.42,2.9-1.89,1.13-.47,2.38-.7,3.77-.7s2.65,.23,3.77,.7c1.13,.47,2.09,1.1,2.9,1.89,.81,.79,1.43,1.71,1.86,2.77s.65,2.16,.65,3.31-.22,2.26-.65,3.31-1.05,1.98-1.86,2.77c-.81,.79-1.78,1.42-2.9,1.89-1.13,.47-2.38,.7-3.77,.7Zm-5.33-8.64c0,.81,.14,1.56,.41,2.24,.27,.68,.65,1.27,1.13,1.78,.48,.5,1.04,.9,1.69,1.18s1.35,.43,2.1,.43,1.45-.14,2.1-.43,1.21-.69,1.69-1.2c.48-.51,.85-1.11,1.13-1.79s.41-1.43,.41-2.24-.14-1.53-.41-2.22c-.27-.69-.65-1.3-1.13-1.81-.48-.51-1.04-.91-1.69-1.2s-1.35-.43-2.1-.43-1.42,.15-2.07,.45-1.21,.7-1.69,1.22c-.48,.51-.86,1.12-1.14,1.81-.29,.69-.43,1.44-.43,2.22Z"/><path class="cls-2" d="M342.85,43.31c-1.46,.04-2.75,.36-3.88,.94-1.13,.59-1.93,1.42-2.41,2.51v10.24h-3.75v-16.74h3.48v3.74c.61-1.15,1.42-2.07,2.41-2.77,.99-.69,2.05-1.07,3.19-1.14h.56c.15,0,.28,.01,.39,.03v3.17Z"/><path class="cls-2" d="M358,57.01l-5.7-7.71-2.97,2.62v5.09h-3.75v-23.36h3.75v14.82l8.19-8.16h4.1l-6.93,7.01,7.31,9.7h-3.99Z"/><path class="cls-2" d="M373.74,57.01v-13.6h-2.39v-2.72h2.39v-.67c0-2.07,.51-3.7,1.54-4.9,1.02-1.19,2.41-1.79,4.17-1.79,.73,0,1.44,.09,2.15,.27,.71,.18,1.38,.43,2.01,.75l-.82,2.62c-.34-.19-.75-.35-1.21-.48-.47-.13-.92-.19-1.35-.19-.89,0-1.57,.31-2.03,.93-.47,.62-.7,1.51-.7,2.69v.77h4.57v2.72h-4.57v13.6h-3.75Z"/><path class="cls-2" d="M392,57.33c-1.41,0-2.68-.23-3.81-.7-1.13-.47-2.09-1.1-2.88-1.89-.8-.79-1.41-1.71-1.84-2.77-.43-1.06-.65-2.16-.65-3.31s.22-2.26,.65-3.31c.43-1.06,1.05-1.98,1.86-2.77,.81-.79,1.78-1.42,2.9-1.89,1.13-.47,2.38-.7,3.77-.7s2.65,.23,3.77,.7c1.13,.47,2.09,1.1,2.9,1.89,.81,.79,1.43,1.71,1.86,2.77s.65,2.16,.65,3.31-.22,2.26-.65,3.31-1.05,1.98-1.86,2.77c-.81,.79-1.78,1.42-2.9,1.89-1.13,.47-2.38,.7-3.77,.7Zm-5.33-8.64c0,.81,.14,1.56,.41,2.24,.27,.68,.65,1.27,1.13,1.78,.48,.5,1.04,.9,1.69,1.18s1.35,.43,2.1,.43,1.45-.14,2.1-.43,1.21-.69,1.69-1.2c.48-.51,.85-1.11,1.13-1.79s.41-1.43,.41-2.24-.14-1.53-.41-2.22c-.27-.69-.65-1.3-1.13-1.81-.48-.51-1.04-.91-1.69-1.2s-1.35-.43-2.1-.43-1.42,.15-2.07,.45-1.21,.7-1.69,1.22c-.48,.51-.86,1.12-1.14,1.81-.29,.69-.43,1.44-.43,2.22Z"/><path class="cls-2" d="M414.57,43.31c-1.46,.04-2.75,.36-3.88,.94-1.13,.59-1.93,1.42-2.41,2.51v10.24h-3.75v-16.74h3.48v3.74c.61-1.15,1.42-2.07,2.41-2.77,.99-.69,2.05-1.07,3.19-1.14h.56c.15,0,.28,.01,.39,.03v3.17Z"/></g></g></g><g id="Lock"><g><path class="cls-3" d="M18.99,93.02c.02,14.61,11.75,26.37,26.12,26.66,14.72,.29,27.21-11.48,27.19-26.67-.02-14.91-11.97-26.4-26.2-26.63-15.08-.24-27.1,11.95-27.11,26.64h0Zm24.5,40.46c-.52-.07-1.03-.16-1.55-.21-8.97-.86-16.81-4.31-23.46-10.37-6.81-6.2-11.15-13.86-12.62-22.95-2.15-13.28,1.4-24.96,10.61-34.8,6.11-6.53,13.69-10.51,22.5-11.97,9.45-1.56,18.39,.05,26.74,4.77,.15,.08,.3,.16,.5,.27,.02-.11,.04-.17,.04-.24,0-6.42,.11-12.84-.05-19.25-.24-9.67-7.66-17.92-17.23-19.42-11.21-1.75-21.73,5.81-23.47,16.99-.33,2.12-.2,4.31-.28,6.47-.02,.47,0,.95,0,1.45H11.5c-.02-.06-.06-.11-.06-.16,0-3.1-.11-6.21,.34-9.29,.86-5.92,3.07-11.28,6.72-16.01,5.11-6.61,11.75-10.86,19.91-12.68,1.47-.33,2.98-.46,4.48-.68,.12-.02,.24-.07,.37-.1h5.17c.7,.11,1.41,.22,2.11,.32,14.75,2.13,26.31,13.32,28.92,28.08,.33,1.87,.5,3.8,.51,5.71,.05,10.56,.02,21.11,.04,31.67,0,.41,.13,.88,.34,1.23,2.98,5.05,4.88,10.47,5.45,16.31,1.24,12.89-2.68,24-11.81,33.16-6.25,6.27-13.86,9.97-22.63,11.24-1.12,.16-2.24,.23-3.37,.34-.12,.01-.24,.07-.36,.11h-4.14Z"/><path class="cls-3" d="M45.77,104.49c-6.23,0-11.35-5.08-11.33-11.33,.02-6.26,4.91-11.36,11.35-11.35,6.46,0,11.3,5.14,11.33,11.32,.03,6.27-5.09,11.37-11.35,11.36h0Z"/></g></g></svg>