<?xml version="1.0" encoding="UTF-8"?><svg xmlns="http://www.w3.org/2000/svg" viewBox="0 0 563.59 139.85"><defs><style>.cls-1{fill:#142233;}.cls-2{fill:#9294a2;}.cls-3{fill:#ee7701;}</style></defs><g id="Navn"><g><path class="cls-1" d="M124.86,110.23c-2.63,0-5.01-.53-7.15-1.59-2.14-1.06-3.98-2.46-5.51-4.21-1.53-1.75-2.72-3.75-3.56-6.01-.84-2.25-1.26-4.56-1.26-6.92s.45-4.82,1.34-7.07c.89-2.25,2.12-4.25,3.69-5.98,1.57-1.73,3.43-3.11,5.58-4.13,2.16-1.02,4.5-1.53,7.02-1.53s4.96,.55,7.1,1.64,3.97,2.52,5.48,4.29c1.52,1.77,2.69,3.78,3.54,6.03,.84,2.25,1.26,4.54,1.26,6.86,0,2.46-.44,4.81-1.31,7.05-.88,2.24-2.09,4.21-3.64,5.93-1.55,1.72-3.4,3.09-5.56,4.11-2.16,1.02-4.5,1.53-7.02,1.53Zm-10.41-18.72c0,1.59,.24,3.14,.71,4.63,.47,1.49,1.15,2.81,2.05,3.95,.89,1.14,1.99,2.06,3.28,2.76,1.3,.69,2.77,1.04,4.42,1.04s3.17-.35,4.47-1.07c1.3-.71,2.39-1.66,3.28-2.83,.89-1.18,1.57-2.5,2.02-3.98,.45-1.47,.68-2.97,.68-4.5s-.24-3.14-.73-4.63c-.49-1.49-1.18-2.81-2.07-3.95-.89-1.14-1.99-2.05-3.28-2.73-1.3-.68-2.75-1.01-4.37-1.01s-3.18,.36-4.5,1.07c-1.31,.71-2.41,1.65-3.28,2.81-.88,1.16-1.54,2.48-2,3.95-.45,1.47-.68,2.97-.68,4.5Z"/><path class="cls-1" d="M162.96,110.49c-2.09,0-3.91-.48-5.46-1.43-1.55-.95-2.76-2.24-3.64-3.87v15.86h-6.77v-38.32h5.91v4.68c.98-1.59,2.24-2.85,3.79-3.77,1.55-.92,3.33-1.38,5.36-1.38,1.79,0,3.44,.37,4.95,1.12,1.52,.75,2.82,1.75,3.92,3.02,1.09,1.27,1.95,2.76,2.58,4.47,.62,1.72,.93,3.53,.93,5.43s-.29,3.83-.86,5.56c-.57,1.73-1.37,3.24-2.4,4.52-1.03,1.28-2.25,2.29-3.66,3.02-1.41,.73-2.96,1.09-4.65,1.09Zm-2.27-5.93c1.01,0,1.95-.23,2.8-.68,.86-.45,1.59-1.06,2.2-1.82,.61-.76,1.08-1.65,1.41-2.65,.34-1,.51-2.04,.51-3.12,0-1.14-.19-2.21-.56-3.2-.37-.99-.88-1.85-1.54-2.57-.66-.73-1.43-1.3-2.32-1.72s-1.86-.62-2.91-.62c-.64,0-1.3,.11-1.97,.34-.67,.23-1.3,.55-1.87,.96-.57,.42-1.09,.9-1.54,1.46-.45,.56-.8,1.16-1.04,1.82v6.4c.61,1.56,1.53,2.85,2.78,3.87,1.25,1.02,2.59,1.53,4.04,1.53Z"/><path class="cls-1" d="M191.41,110.49c-2.12,0-4.04-.37-5.76-1.12-1.72-.75-3.18-1.76-4.4-3.04-1.21-1.28-2.15-2.77-2.8-4.47-.66-1.7-.98-3.48-.98-5.36s.32-3.77,.96-5.49c.64-1.72,1.57-3.22,2.78-4.52,1.21-1.3,2.69-2.33,4.42-3.09,1.73-.76,3.68-1.14,5.84-1.14s4.08,.38,5.79,1.14c1.7,.76,3.15,1.79,4.35,3.07,1.2,1.28,2.1,2.77,2.73,4.47,.62,1.7,.94,3.47,.94,5.3,0,.45,0,.88-.03,1.3-.02,.42-.06,.76-.13,1.04h-20.46c.1,1.08,.35,2.03,.76,2.86s.93,1.54,1.57,2.13c.64,.59,1.36,1.04,2.17,1.35s1.65,.47,2.53,.47c1.35,0,2.62-.34,3.81-1.01,1.2-.68,2.01-1.57,2.45-2.68l5.81,1.66c-.98,2.08-2.54,3.79-4.67,5.12-2.14,1.33-4.69,2-7.65,2Zm6.87-16.43c-.17-2.04-.9-3.68-2.2-4.91-1.3-1.23-2.87-1.85-4.72-1.85-.91,0-1.76,.17-2.55,.49-.79,.33-1.49,.79-2.1,1.38-.61,.59-1.1,1.3-1.49,2.13-.39,.83-.62,1.75-.68,2.76h13.74Z"/><path class="cls-1" d="M234,109.97h-6.77v-15.29c0-2.18-.37-3.78-1.11-4.78-.74-1.01-1.77-1.51-3.08-1.51-.67,0-1.36,.14-2.07,.42-.71,.28-1.37,.67-2,1.17-.62,.5-1.19,1.1-1.69,1.79-.51,.69-.88,1.46-1.11,2.29v15.91h-6.77v-27.25h6.11v5.04c.98-1.73,2.39-3.08,4.24-4.06,1.85-.97,3.94-1.46,6.27-1.46,1.65,0,3,.31,4.04,.94,1.04,.62,1.85,1.44,2.43,2.44,.57,1.01,.97,2.15,1.19,3.43,.22,1.28,.33,2.58,.33,3.9v17Z"/><path class="cls-1" d="M261.34,73.05h6.16l13.64,36.92h-7.18l-3.33-9.2h-12.53l-3.28,9.2h-7.18l13.69-36.92Zm8.03,22.67l-4.95-14.51-5.15,14.51h10.11Z"/><path class="cls-1" d="M282.06,96.35c0-1.91,.32-3.71,.96-5.41,.64-1.7,1.57-3.19,2.78-4.47,1.21-1.28,2.68-2.31,4.4-3.07,1.72-.76,3.65-1.14,5.81-1.14,2.9,0,5.36,.64,7.4,1.92,2.04,1.28,3.56,2.96,4.57,5.04l-6.62,2.08c-.57-1-1.33-1.78-2.27-2.31-.94-.54-1.99-.81-3.13-.81-.98,0-1.89,.2-2.73,.6-.84,.4-1.58,.95-2.2,1.66-.62,.71-1.11,1.57-1.47,2.57-.35,1.01-.53,2.12-.53,3.33s.18,2.32,.56,3.33c.37,1.01,.87,1.87,1.49,2.6,.62,.73,1.36,1.29,2.2,1.69,.84,.4,1.73,.6,2.68,.6,1.21,0,2.33-.31,3.36-.94,1.03-.62,1.74-1.39,2.15-2.29l6.62,2.08c-.91,2.08-2.41,3.78-4.5,5.1-2.09,1.32-4.6,1.98-7.53,1.98-2.16,0-4.09-.38-5.81-1.14s-3.18-1.79-4.4-3.09c-1.21-1.3-2.15-2.81-2.8-4.52-.66-1.72-.99-3.51-.99-5.38Z"/><path class="cls-1" d="M310.3,96.35c0-1.91,.32-3.71,.96-5.41,.64-1.7,1.57-3.19,2.78-4.47,1.21-1.28,2.68-2.31,4.4-3.07,1.72-.76,3.65-1.14,5.81-1.14,2.9,0,5.36,.64,7.4,1.92,2.04,1.28,3.56,2.96,4.57,5.04l-6.62,2.08c-.57-1-1.33-1.78-2.27-2.31-.94-.54-1.99-.81-3.13-.81-.98,0-1.89,.2-2.73,.6-.84,.4-1.58,.95-2.2,1.66-.62,.71-1.11,1.57-1.47,2.57-.35,1.01-.53,2.12-.53,3.33s.18,2.32,.56,3.33c.37,1.01,.87,1.87,1.49,2.6,.62,.73,1.36,1.29,2.2,1.69,.84,.4,1.73,.6,2.68,.6,1.21,0,2.33-.31,3.36-.94,1.03-.62,1.74-1.39,2.15-2.29l6.62,2.08c-.91,2.08-2.41,3.78-4.5,5.1-2.09,1.32-4.6,1.98-7.53,1.98-2.16,0-4.09-.38-5.81-1.14s-3.18-1.79-4.4-3.09c-1.21-1.3-2.15-2.81-2.8-4.52-.66-1.72-.99-3.51-.99-5.38Z"/><path class="cls-1" d="M352.49,110.49c-2.12,0-4.04-.37-5.76-1.12s-3.18-1.76-4.4-3.04c-1.21-1.28-2.15-2.77-2.8-4.47-.66-1.7-.99-3.48-.99-5.36s.32-3.77,.96-5.49c.64-1.72,1.57-3.22,2.78-4.52,1.21-1.3,2.69-2.33,4.42-3.09,1.73-.76,3.68-1.14,5.84-1.14s4.08,.38,5.79,1.14c1.7,.76,3.15,1.79,4.35,3.07,1.2,1.28,2.1,2.77,2.73,4.47,.62,1.7,.93,3.47,.93,5.3,0,.45,0,.88-.03,1.3s-.06,.76-.13,1.04h-20.46c.1,1.08,.35,2.03,.76,2.86s.93,1.54,1.57,2.13c.64,.59,1.36,1.04,2.17,1.35s1.65,.47,2.53,.47c1.35,0,2.62-.34,3.81-1.01,1.2-.68,2.01-1.57,2.45-2.68l5.81,1.66c-.98,2.08-2.54,3.79-4.67,5.12-2.14,1.33-4.69,2-7.66,2Zm6.87-16.43c-.17-2.04-.9-3.68-2.2-4.91-1.3-1.23-2.87-1.85-4.72-1.85-.91,0-1.76,.17-2.55,.49-.79,.33-1.49,.79-2.1,1.38-.61,.59-1.1,1.3-1.49,2.13-.39,.83-.62,1.75-.68,2.76h13.74Z"/><path class="cls-1" d="M380.49,110.49c-2.22,0-4.4-.36-6.52-1.09-2.12-.73-3.94-1.77-5.46-3.12l2.53-4.37c1.62,1.18,3.19,2.07,4.72,2.68,1.53,.61,3.06,.91,4.57,.91,1.35,0,2.41-.26,3.18-.78s1.16-1.27,1.16-2.24-.45-1.68-1.36-2.13c-.91-.45-2.39-.97-4.45-1.56-1.72-.48-3.18-.95-4.4-1.4-1.21-.45-2.19-.96-2.93-1.53-.74-.57-1.28-1.23-1.62-1.98-.34-.74-.5-1.64-.5-2.68,0-1.39,.26-2.63,.78-3.74,.52-1.11,1.25-2.05,2.2-2.83,.94-.78,2.05-1.38,3.31-1.79,1.26-.42,2.64-.62,4.12-.62,1.99,0,3.85,.29,5.58,.88,1.73,.59,3.33,1.54,4.77,2.86l-2.73,4.21c-1.35-1.04-2.65-1.8-3.92-2.29-1.26-.48-2.52-.73-3.76-.73-1.15,0-2.11,.24-2.88,.73-.78,.49-1.16,1.27-1.16,2.34,0,.49,.09,.88,.28,1.2,.18,.31,.48,.59,.88,.83,.4,.24,.94,.48,1.59,.7,.66,.23,1.47,.46,2.45,.7,1.82,.49,3.38,.97,4.67,1.46,1.3,.49,2.36,1.04,3.18,1.66s1.43,1.34,1.82,2.16c.39,.81,.58,1.79,.58,2.94,0,2.67-.96,4.78-2.88,6.32-1.92,1.54-4.53,2.31-7.83,2.31Z"/><path class="cls-1" d="M405.6,110.49c-2.22,0-4.4-.36-6.52-1.09-2.12-.73-3.94-1.77-5.46-3.12l2.53-4.37c1.62,1.18,3.19,2.07,4.72,2.68,1.53,.61,3.06,.91,4.57,.91,1.35,0,2.41-.26,3.18-.78s1.16-1.27,1.16-2.24-.45-1.68-1.36-2.13c-.91-.45-2.39-.97-4.45-1.56-1.72-.48-3.18-.95-4.4-1.4-1.21-.45-2.19-.96-2.93-1.53-.74-.57-1.28-1.23-1.62-1.98-.34-.74-.5-1.64-.5-2.68,0-1.39,.26-2.63,.78-3.74,.52-1.11,1.25-2.05,2.2-2.83,.94-.78,2.05-1.38,3.31-1.79,1.26-.42,2.64-.62,4.12-.62,1.99,0,3.85,.29,5.58,.88,1.73,.59,3.33,1.54,4.77,2.86l-2.73,4.21c-1.35-1.04-2.65-1.8-3.92-2.29-1.26-.48-2.52-.73-3.76-.73-1.15,0-2.11,.24-2.88,.73-.78,.49-1.16,1.27-1.16,2.34,0,.49,.09,.88,.28,1.2,.18,.31,.48,.59,.88,.83,.4,.24,.94,.48,1.59,.7,.66,.23,1.47,.46,2.45,.7,1.82,.49,3.38,.97,4.67,1.46,1.3,.49,2.36,1.04,3.18,1.66s1.43,1.34,1.82,2.16c.39,.81,.58,1.79,.58,2.94,0,2.67-.96,4.78-2.88,6.32-1.92,1.54-4.53,2.31-7.83,2.31Z"/></g><g id="DK"><g><path class="cls-2" d="M108.72,57.01v-22.72h8.98c2.04,0,3.83,.3,5.36,.9,1.53,.6,2.81,1.41,3.85,2.43,1.03,1.02,1.81,2.22,2.33,3.6,.52,1.38,.78,2.84,.78,4.4,0,1.73-.29,3.29-.87,4.69-.58,1.4-1.41,2.59-2.48,3.58-1.07,.99-2.36,1.76-3.88,2.3-1.52,.54-3.22,.82-5.09,.82h-8.98Zm17.24-11.39c0-1.19-.18-2.29-.55-3.3-.37-1-.91-1.86-1.62-2.58-.71-.71-1.58-1.27-2.6-1.68-1.02-.41-2.19-.61-3.49-.61h-4.99v16.38h4.99c1.33,0,2.51-.21,3.54-.62s1.9-.99,2.6-1.73c.7-.74,1.23-1.6,1.59-2.61,.36-1,.53-2.09,.53-3.26Z"/><path class="cls-2" d="M138.68,57.33c-.9,0-1.74-.13-2.51-.4-.77-.27-1.44-.63-2-1.1-.56-.47-1-1.02-1.32-1.66-.32-.64-.48-1.33-.48-2.08,0-.79,.19-1.5,.57-2.14,.38-.64,.92-1.19,1.62-1.66,.7-.47,1.53-.83,2.49-1.09,.96-.26,2.02-.38,3.19-.38,.88,0,1.75,.07,2.6,.21,.85,.14,1.63,.33,2.32,.56v-1.15c0-1.24-.39-2.2-1.18-2.9s-1.91-1.04-3.38-1.04c-1,0-1.98,.17-2.94,.5-.96,.33-1.95,.81-2.97,1.42l-1.21-2.24c2.4-1.45,4.89-2.18,7.48-2.18s4.56,.59,5.98,1.76c1.43,1.17,2.14,2.86,2.14,5.06v6.05c0,.75,.34,1.13,1.03,1.15v3.01c-.38,.06-.71,.11-.98,.13-.27,.02-.54,.03-.8,.03-.76,0-1.35-.17-1.76-.51-.42-.34-.67-.78-.77-1.31l-.11-1.06c-.83,.98-1.86,1.73-3.08,2.26-1.22,.52-2.54,.78-3.94,.78Zm1.07-2.59c.95,0,1.85-.15,2.69-.46,.84-.31,1.5-.74,1.98-1.3,.5-.38,.75-.79,.75-1.22v-2.21c-.67-.23-1.37-.42-2.12-.54-.75-.13-1.48-.19-2.19-.19-1.4,0-2.55,.27-3.44,.82s-1.34,1.26-1.34,2.16c0,.83,.34,1.53,1.03,2.1,.69,.57,1.57,.85,2.64,.85Z"/><path class="cls-2" d="M170.52,57.01h-3.92v-9.38c0-1.58-.28-2.73-.84-3.44-.56-.71-1.38-1.07-2.48-1.07-.57,0-1.14,.1-1.71,.29s-1.1,.46-1.6,.82c-.5,.35-.94,.77-1.34,1.25-.39,.48-.69,1.01-.91,1.58v9.95h-3.92v-16.74h3.56v3.36c.71-1.13,1.75-2.02,3.1-2.67,1.35-.65,2.85-.98,4.49-.98,1.12,0,2.03,.18,2.74,.54,.71,.36,1.28,.86,1.69,1.49,.42,.63,.71,1.35,.87,2.18s.25,1.69,.25,2.61v10.21Z"/><path class="cls-2" d="M181.85,57.33c-1.5,0-2.99-.22-4.47-.66-1.48-.44-2.76-1.06-3.83-1.87l1.57-2.24c1.12,.73,2.22,1.28,3.31,1.65,1.09,.37,2.21,.56,3.35,.56s2.08-.2,2.76-.61c.68-.4,1.02-.98,1.02-1.73,0-.7-.38-1.22-1.14-1.54-.76-.32-1.95-.67-3.56-1.06-1.16-.28-2.16-.54-2.99-.8-.83-.26-1.51-.55-2.03-.9s-.9-.74-1.14-1.18c-.24-.45-.36-.99-.36-1.63,0-.85,.18-1.61,.55-2.27,.37-.66,.88-1.22,1.53-1.68,.65-.46,1.42-.81,2.3-1.04,.88-.23,1.83-.35,2.85-.35,1.4,0,2.71,.19,3.92,.58,1.21,.38,2.29,.94,3.24,1.66l-1.67,2.11c-1.73-1.24-3.57-1.86-5.52-1.86-1,0-1.83,.19-2.51,.56s-1.02,.97-1.02,1.78c0,.34,.07,.63,.21,.86,.14,.24,.37,.44,.69,.61,.32,.17,.74,.33,1.25,.46,.51,.14,1.15,.29,1.91,.46,1.26,.28,2.34,.56,3.26,.83,.91,.28,1.67,.6,2.26,.98,.59,.37,1.03,.81,1.32,1.31,.28,.5,.43,1.1,.43,1.81,0,1.6-.67,2.86-2.01,3.79-1.34,.93-3.17,1.39-5.47,1.39Z"/><path class="cls-2" d="M205.72,57.01l-5.95-7.71-3.1,2.62v5.09h-3.92v-23.36h3.92v14.82l8.55-8.16h4.27l-7.23,7.01,7.62,9.7h-4.17Z"/><path class="cls-2" d="M237.78,57.01h-3.92v-9.38c0-1.58-.28-2.73-.84-3.44-.56-.71-1.38-1.07-2.48-1.07-.57,0-1.14,.1-1.71,.29s-1.1,.46-1.6,.82c-.5,.35-.94,.77-1.34,1.25-.39,.48-.69,1.01-.91,1.58v9.95h-3.92v-16.74h3.56v3.36c.71-1.13,1.75-2.02,3.1-2.67,1.35-.65,2.85-.98,4.49-.98,1.12,0,2.03,.18,2.74,.54,.71,.36,1.28,.86,1.69,1.49,.42,.63,.71,1.35,.87,2.18s.25,1.69,.25,2.61v10.21Z"/><path class="cls-2" d="M250.78,57.33c-1.45,0-2.77-.23-3.95-.69-1.19-.46-2.2-1.08-3.05-1.87-.84-.79-1.5-1.71-1.96-2.75-.46-1.04-.69-2.15-.69-3.33s.23-2.29,.69-3.34c.46-1.06,1.12-1.98,1.96-2.78,.84-.8,1.86-1.43,3.05-1.89,1.19-.46,2.52-.69,3.99-.69s2.76,.23,3.94,.7c1.18,.47,2.18,1.09,3.01,1.87,.83,.78,1.47,1.69,1.91,2.72,.44,1.04,.66,2.12,.66,3.25,0,.26-.01,.5-.04,.72-.02,.22-.05,.41-.07,.56h-14.93c.07,.75,.27,1.42,.59,2.02,.32,.6,.74,1.12,1.25,1.55,.51,.44,1.09,.77,1.75,1.01,.65,.23,1.34,.35,2.05,.35,.52,0,1.04-.06,1.55-.18,.51-.12,.98-.29,1.41-.51,.43-.22,.81-.5,1.14-.82,.33-.32,.59-.67,.78-1.06l3.35,.86c-.64,1.26-1.7,2.29-3.19,3.09-1.48,.8-3.21,1.2-5.18,1.2Zm5.66-9.95c-.07-.7-.27-1.35-.59-1.95-.32-.6-.73-1.1-1.23-1.52-.5-.42-1.08-.74-1.75-.98-.67-.23-1.37-.35-2.1-.35s-1.43,.12-2.08,.35c-.65,.23-1.23,.56-1.73,.98-.5,.42-.9,.92-1.21,1.52-.31,.6-.5,1.25-.57,1.95h11.26Z"/><path class="cls-2" d="M273.76,56.15c-.5,.21-1.19,.45-2.07,.72-.88,.27-1.82,.4-2.81,.4-.62,0-1.2-.07-1.75-.22-.55-.15-1.03-.37-1.44-.67-.42-.3-.74-.69-.98-1.17-.24-.48-.36-1.06-.36-1.74v-10.46h-2.46v-2.72h2.46v-5.5h3.92v5.5h4.06v2.72h-4.06v9.34c.05,.6,.25,1.03,.62,1.3,.37,.27,.83,.4,1.37,.4s1.07-.08,1.57-.26c.5-.17,.87-.31,1.1-.42l.82,2.78Z"/><path class="cls-2" d="M281.7,57.01l-7.12-16.74h4.03l5.34,13.76,5.38-13.76h3.71l-7.12,16.74h-4.2Z"/><path class="cls-2" d="M300.26,57.33c-.9,0-1.73-.13-2.49-.4s-1.42-.63-1.98-1.1c-.56-.47-1-1.02-1.32-1.66-.32-.64-.48-1.33-.48-2.08,0-.79,.19-1.5,.57-2.14,.38-.64,.91-1.19,1.6-1.66,.69-.47,1.51-.83,2.48-1.09,.96-.26,2.02-.38,3.19-.38,.78,0,1.56,.05,2.33,.16,.77,.11,1.47,.27,2.08,.48,.05-.28,.09-.59,.14-.93,.05-.34,.13-.63,.25-.86-.14-1.02-.59-1.81-1.34-2.35s-1.79-.82-3.12-.82c-.97,0-1.94,.17-2.9,.5-.96,.33-1.95,.81-2.97,1.42l-1.25-2.24c2.45-1.45,4.94-2.18,7.48-2.18,1.5,0,2.8,.23,3.9,.7s1.96,1.14,2.58,2.02c.78-.81,1.76-1.47,2.92-1.97,1.16-.5,2.46-.75,3.88-.75s2.77,.23,3.95,.69c1.19,.46,2.2,1.08,3.03,1.87,.83,.79,1.48,1.71,1.94,2.77,.46,1.06,.69,2.17,.69,3.34,0,.17,0,.37-.02,.59-.01,.22-.04,.41-.09,.56h-15.21c.07,.75,.27,1.42,.61,2.02,.33,.6,.77,1.12,1.3,1.55,.53,.44,1.15,.77,1.83,1.01,.69,.23,1.41,.35,2.17,.35,.52,0,1.04-.06,1.55-.18,.51-.12,.98-.29,1.41-.51,.43-.22,.81-.5,1.14-.82,.33-.32,.59-.67,.78-1.06l3.35,.86c-.31,.62-.74,1.19-1.28,1.71-.55,.52-1.18,.98-1.91,1.36s-1.53,.68-2.4,.9-1.8,.32-2.78,.32c-1.71,0-3.24-.32-4.6-.96-1.35-.64-2.45-1.5-3.28-2.59-.4,.64-.91,1.18-1.53,1.63-.62,.45-1.28,.82-1.98,1.1-.7,.29-1.42,.5-2.16,.62-.74,.13-1.44,.19-2.1,.19Zm1.07-2.59c.97,0,1.88-.15,2.73-.46,.84-.31,1.5-.74,1.98-1.3,.45-.34,.7-.71,.75-1.12-.17-.28-.29-.68-.37-1.2-.08-.52-.14-.94-.16-1.26-.59-.17-1.22-.31-1.87-.42-.65-.11-1.29-.16-1.91-.16-1.42,0-2.58,.27-3.47,.82s-1.34,1.26-1.34,2.16c0,.43,.09,.82,.29,1.17,.19,.35,.45,.66,.78,.93,.33,.27,.72,.48,1.16,.62,.44,.15,.92,.22,1.44,.22Zm20.2-7.17c-.07-.73-.27-1.4-.59-2.02-.32-.62-.73-1.15-1.23-1.58-.5-.44-1.09-.78-1.76-1.02-.68-.25-1.41-.37-2.19-.37s-1.51,.12-2.19,.37c-.68,.25-1.26,.59-1.76,1.04-.5,.45-.9,.98-1.21,1.58s-.49,1.27-.53,2h11.47Z"/><path class="cls-2" d="M339.13,43.31c-1.52,.04-2.87,.36-4.04,.94-1.18,.59-2.01,1.42-2.51,2.51v10.24h-3.92v-16.74h3.63v3.74c.64-1.15,1.48-2.07,2.51-2.77s2.14-1.07,3.33-1.14h.59c.15,0,.29,.01,.41,.03v3.17Z"/><path class="cls-2" d="M354.95,57.01l-5.95-7.71-3.1,2.62v5.09h-3.92v-23.36h3.92v14.82l8.55-8.16h4.28l-7.23,7.01,7.62,9.7h-4.17Z"/><path class="cls-2" d="M371.37,57.01v-13.6h-2.49v-2.72h2.49v-.67c0-2.07,.53-3.7,1.6-4.9,1.07-1.19,2.52-1.79,4.35-1.79,.76,0,1.51,.09,2.24,.27,.74,.18,1.44,.43,2.1,.75l-.85,2.62c-.36-.19-.78-.35-1.26-.48-.49-.13-.96-.19-1.41-.19-.93,0-1.63,.31-2.12,.93-.49,.62-.73,1.51-.73,2.69v.77h4.77v2.72h-4.77v13.6h-3.92Z"/><path class="cls-2" d="M390.43,57.33c-1.47,0-2.8-.23-3.97-.7-1.18-.47-2.18-1.1-3.01-1.89-.83-.79-1.47-1.71-1.92-2.77s-.68-2.16-.68-3.31,.23-2.26,.68-3.31,1.1-1.98,1.94-2.77c.84-.79,1.85-1.42,3.03-1.89s2.49-.7,3.94-.7,2.76,.23,3.94,.7,2.18,1.1,3.03,1.89c.84,.79,1.49,1.71,1.94,2.77,.45,1.06,.68,2.16,.68,3.31s-.23,2.26-.68,3.31c-.45,1.06-1.1,1.98-1.94,2.77-.84,.79-1.85,1.42-3.03,1.89-1.18,.47-2.49,.7-3.94,.7Zm-5.56-8.64c0,.81,.14,1.56,.43,2.24,.29,.68,.68,1.27,1.18,1.78,.5,.5,1.09,.9,1.76,1.18s1.41,.43,2.19,.43,1.51-.14,2.19-.43c.68-.29,1.26-.69,1.76-1.2,.5-.51,.89-1.11,1.18-1.79s.43-1.43,.43-2.24-.14-1.53-.43-2.22c-.29-.69-.68-1.3-1.18-1.81-.5-.51-1.09-.91-1.76-1.2-.68-.29-1.41-.43-2.19-.43s-1.48,.15-2.16,.45-1.26,.7-1.76,1.22c-.5,.51-.9,1.12-1.19,1.81-.3,.69-.45,1.44-.45,2.22Z"/><path class="cls-2" d="M413.97,43.31c-1.52,.04-2.87,.36-4.04,.94-1.18,.59-2.01,1.42-2.51,2.51v10.24h-3.92v-16.74h3.63v3.74c.64-1.15,1.48-2.07,2.51-2.77s2.14-1.07,3.33-1.14h.59c.15,0,.29,.01,.41,.03v3.17Z"/></g></g></g><g id="Lock"><g><path class="cls-3" d="M18.99,93.02c.02,14.61,11.75,26.37,26.12,26.66,14.72,.29,27.21-11.48,27.19-26.67-.02-14.91-11.97-26.4-26.2-26.63-15.08-.24-27.1,11.95-27.11,26.64h0Zm24.5,40.46c-.52-.07-1.03-.16-1.55-.21-8.97-.86-16.81-4.31-23.46-10.37-6.81-6.2-11.15-13.86-12.62-22.95-2.15-13.28,1.4-24.96,10.61-34.8,6.11-6.53,13.69-10.51,22.5-11.97,9.45-1.56,18.39,.05,26.74,4.77,.15,.08,.3,.16,.5,.27,.02-.11,.04-.17,.04-.24,0-6.42,.11-12.84-.05-19.25-.24-9.67-7.66-17.92-17.23-19.42-11.21-1.75-21.73,5.81-23.47,16.99-.33,2.12-.2,4.31-.28,6.47-.02,.47,0,.95,0,1.45H11.5c-.02-.06-.06-.11-.06-.16,0-3.1-.11-6.21,.34-9.29,.86-5.92,3.07-11.28,6.72-16.01,5.11-6.61,11.75-10.86,19.91-12.68,1.47-.33,2.98-.46,4.48-.68,.12-.02,.24-.07,.37-.1h5.17c.7,.11,1.41,.22,2.11,.32,14.75,2.13,26.31,13.32,28.92,28.08,.33,1.87,.5,3.8,.51,5.71,.05,10.56,.02,21.11,.04,31.67,0,.41,.13,.88,.34,1.23,2.98,5.05,4.88,10.47,5.45,16.31,1.24,12.89-2.68,24-11.81,33.16-6.25,6.27-13.86,9.97-22.63,11.24-1.12,.16-2.24,.23-3.37,.34-.12,.01-.24,.07-.36,.11h-4.14Z"/><path class="cls-3" d="M45.77,104.49c-6.23,0-11.35-5.08-11.33-11.33,.02-6.26,4.91-11.36,11.35-11.35,6.46,0,11.3,5.14,11.33,11.32,.03,6.27-5.09,11.37-11.35,11.36h0Z"/></g></g></svg>